<svg width="155" height="35" xmlns="http://www.w3.org/2000/svg" viewBox="0 0 397.98 83.15">
                                <defs>
                                    <style>
                                        .cls-1 {
                                            fill: #00a786;
                                        }</style>
                                </defs>
                                <path class="cls-1" d="M483.82,445v-6.37h13.12V445h8V425.07a14.64,14.64,0,0,0-29.23,0V445Zm0-20a6.55,6.55,0,0,1,13.1,0v6.19H483.82Z" transform="translate(-107.01 -386.92)" />
                                <rect class="cls-1" x="351.76" y="25.02" width="8.04" height="33.1" />
                                <path class="cls-1" d="M443.76,425.24c-2.52-.86-6.63-2.33-7.53-2.66a1.84,1.84,0,0,1-1.19-2.15,2.27,2.27,0,0,1,2-1.54,8.89,8.89,0,0,1,5.05.4,9.19,9.19,0,0,1,3,1.73l4.7-5.61a17,17,0,0,0-4.46-2.69c-3.49-1.42-8-2.1-11.79-.42a9.56,9.56,0,0,0-5.67,7.47c-.67,4,1.19,8,6.17,9.73,4,1.42,6.88,2.46,8.27,2.95a2.69,2.69,0,0,1,1.89,3.08,3.3,3.3,0,0,1-2.34,2.3,9.77,9.77,0,0,1-8.16-1,11.76,11.76,0,0,1-1.81-1.41l-5.18,5.18a13.84,13.84,0,0,0,1.94,1.67,16.75,16.75,0,0,0,6.22,2.88,18.32,18.32,0,0,0,8.51-.12,11.08,11.08,0,0,0,6.85-4.67,10,10,0,0,0,.87-8.36C450.09,428.94,447.61,426.55,443.76,425.24Z" transform="translate(-107.01 -386.92)" />
                                <polygon class="cls-1" points="286.62 25.01 286.62 32.36 296.41 32.36 296.43 58.1 304.41 58.1 304.4 32.35 314.2 32.35 314.2 25 286.62 25.01" />
                                <path class="cls-1" d="M336.93,411.35a14.75,14.75,0,0,0-14.63,13.79v19.91h8.08V425.52a6.56,6.56,0,1,1,13.11,0V445h8V425.12A14.71,14.71,0,0,0,336.93,411.35Z" transform="translate(-107.01 -386.92)" />
                                <path class="cls-1" d="M379.34,411.92v11a6.55,6.55,0,1,1-13.1,0l0-11h-8v11.35a14.7,14.7,0,0,0,10.59,13.2V445h8v-8.55a14.74,14.74,0,0,0,10.6-13.21V411.91Z" transform="translate(-107.01 -386.92)" />
                                <path class="cls-1" d="M312.3,424.28C312.28,418.35,308,412,300,412h-16.1v33.1h8v-8.58h6.88l5.35,8.58h9.58l-6.91-10.53A12.47,12.47,0,0,0,312.3,424.28ZM300.13,429H292v-9.61h8.07c2.14,0,4.11,2.08,4.11,4.86C304.21,427.28,302.05,429,300.13,429Z" transform="translate(-107.01 -386.92)" />
                                <path class="cls-1" d="M274.32,425.16h0a14.62,14.62,0,0,0-29.19,0h0v19.92h8.06v-6.36h13.12v6.37h8.07V425.16Zm-8.06,6.09H253.14v-6.2a6.56,6.56,0,0,1,13.11,0v6.2Z" transform="translate(-107.01 -386.92)" />
                                <path class="cls-1" d="M219.33,412H206.79l0,33.09h12.54c10.84,0,17.32-6.2,17.31-16.56S230.18,412,219.33,412Zm0,25.88h-4.5V419.22h4.5c6.08,0,9.16,3.13,9.16,9.33S225.42,437.88,219.34,437.88Z" transform="translate(-107.01 -386.92)" />
                                <path class="cls-1" d="M140.29,420.29a16.63,16.63,0,0,1,16.64,16.61h16.65v-50H156.87V408a33.24,33.24,0,1,0-16.58,62h33.28V453.49H140.19a16.6,16.6,0,0,1,.1-33.2" transform="translate(-107.01 -386.92)" />
                            </svg>