<svg width="248px" height="42px" viewBox="0 0 248 42" fill="none" xmlns="http://www.w3.org/2000/svg" transform="rotate(0) scale(1, 1)">
<path fill-rule="evenodd" clip-rule="evenodd" d="M22.5749 4.5071C25.0546 7.06927 26.4492 10.5432 26.453 14.1667C29.9608 14.1667 33.325 15.6065 35.8055 18.1695C38.2859 20.7325 39.6794 24.2087 39.6794 27.8333C39.6794 31.458 38.2859 34.9341 35.8055 37.4971C33.325 40.0601 29.9608 41.5 26.453 41.5H0V0.5H13.2265C16.7332 0.503828 20.0953 1.94493 22.5749 4.5071ZM13.2265 3.91305H3.30312L3.27513 18.8018C3.39821 18.6782 3.51598 18.5547 3.63201 18.433C3.74689 18.3125 3.86005 18.1938 3.97494 18.0787C6.43802 15.5638 9.76374 14.1575 13.2265 14.1667H23.1288V13.552C22.974 10.9455 21.8638 8.49783 20.0242 6.70716C18.1846 4.91648 15.7538 3.91734 13.2265 3.91305ZM18.9536 22.5317C20.6285 21.3071 21.8962 19.5775 22.583 17.5797H13.2265C11.1742 17.582 9.17293 18.2409 7.49759 19.4657C5.82226 20.6905 4.55503 22.4213 3.86997 24.4203H13.2265C15.2783 24.4159 17.2786 23.7562 18.9536 22.5317ZM3.30312 38.1014H26.453C29.0857 38.1283 31.621 37.0733 33.501 35.1687C35.381 33.2641 36.4518 30.6658 36.4778 27.9454C36.5038 25.225 35.4828 22.6054 33.6395 20.6628C31.7963 18.7202 29.2817 17.6138 26.6489 17.5869H26.0331C25.7521 18.702 25.336 19.7759 24.7944 20.7831C23.6499 22.9174 21.9737 24.6965 19.9398 25.9362C17.9058 27.1758 15.5879 27.8309 13.2265 27.8333H3.30312V38.1014Z" fill="#ffffff"/>
<path fill-rule="evenodd" clip-rule="evenodd" d="M79.1629 11.802C76.1957 11.802 73.4874 13.429 71.4159 15.3018V5.62669H69.4285V29.8941H70.8981L71.29 26.6835C73.3894 28.578 76.1327 30.1905 79.1629 30.1905C83.0119 30.1905 86.322 27.139 86.322 20.9999C86.322 14.8607 83.0119 11.802 79.1629 11.802ZM79.1629 28.2815C76.2517 28.2815 73.6833 26.4738 71.4159 24.2972V17.529C73.6833 15.4537 76.2517 13.7182 79.1629 13.7182C81.9132 13.7182 84.2995 16.1045 84.2995 20.9999C84.2995 25.8953 81.9132 28.2815 79.1629 28.2815Z" fill="#ffffff"/>
<path d="M93.3131 5.62669H91.3327V9.08313H93.3131V5.62669Z" fill="#ffffff"/>
<path d="M93.3131 12.0986H91.3327V29.9014H93.3131V12.0986Z" fill="#ffffff"/>
<path fill-rule="evenodd" clip-rule="evenodd" d="M107.176 11.802C102.81 11.802 98.3308 14.8535 98.3308 20.9999C98.3308 27.1463 102.81 30.1906 107.176 30.1906C111.543 30.1906 116.022 27.1391 116.022 20.9999C116.022 14.8608 111.543 11.802 107.176 11.802ZM107.176 28.2816C103.831 28.2816 100.381 25.8519 100.381 20.9999C100.381 16.1479 103.831 13.7183 107.176 13.7183C110.522 13.7183 113.965 16.1407 113.965 20.9999C113.965 25.8592 110.515 28.2816 107.176 28.2816Z" fill="#ffffff"/>
<path fill-rule="evenodd" clip-rule="evenodd" d="M130.823 11.802C127.8 11.802 125.05 13.4869 122.964 15.4176L122.558 12.0696H121.068V36.3731H123.055V26.792C125.155 28.6359 127.835 30.1906 130.802 30.1906C134.658 30.1906 137.961 27.1391 137.961 20.9999C137.961 14.8608 134.679 11.802 130.823 11.802ZM130.823 28.2816C127.919 28.2816 125.344 26.4738 123.076 24.2973V17.529C125.344 15.4537 127.919 13.7183 130.823 13.7183C133.573 13.7183 135.96 16.1045 135.96 20.9999C135.96 25.8953 133.573 28.2816 130.823 28.2816Z" fill="#ffffff"/>
<path d="M153.049 11.802C150.033 11.802 147.451 13.3639 145.302 15.2729V5.62669H143.322V29.8941H145.302V17.5218C147.696 15.2946 150.201 13.7182 153.049 13.7182C155.66 13.7182 157.423 15.2946 157.423 18.4618V29.8941H159.404V18.4618C159.404 14.0075 156.835 11.802 153.049 11.802Z" fill="#ffffff"/>
<path d="M187.858 15.4105L187.452 12.0698H185.989V29.8943H187.97V17.5509C189.768 15.4973 191.714 13.7185 194.177 13.7185C194.899 13.712 195.615 13.8623 196.277 14.1596L197.047 12.2795C196.229 11.9991 195.375 11.8503 194.513 11.8384C191.819 11.8384 189.719 13.3858 187.858 15.4105Z" fill="#ffffff"/>
<path d="M221.491 11.802C218.797 11.802 216.333 13.4869 214.493 15.4971C213.597 13.0313 211.505 11.802 208.894 11.802C206.284 11.802 204.038 13.4001 202.232 15.2874L201.812 12.0696H200.343V29.8941H202.33V17.6013C204.017 15.5694 206.438 13.7472 208.866 13.7472C211.295 13.7472 212.974 15.1428 212.974 18.8089V29.8941H214.962V18.4618C214.962 18.1653 214.962 17.8906 214.927 17.6158C216.613 15.5622 219.056 13.7183 221.491 13.7183C223.926 13.7183 225.606 15.1138 225.606 18.78V29.8941H227.586V18.4618C227.586 14.0075 225.018 11.802 221.491 11.802Z" fill="#ffffff"/>
<path fill-rule="evenodd" clip-rule="evenodd" d="M173.211 11.802C169.761 11.802 167.521 12.9807 165.17 14.4847L166.157 16.0683C168.802 14.3763 170.307 13.6387 173.155 13.6387C175.765 13.6387 177.823 15.0415 177.823 18.9391V21.2096C175.848 19.8182 173.528 19.0425 171.139 18.9752C167.465 18.9752 164.197 21.0361 164.197 24.6733C164.197 28.3105 166.877 30.1906 170.293 30.1906C173.386 30.1906 175.891 28.5202 177.921 26.51L178.333 29.8941H179.803V18.4618C179.782 14.0075 176.99 11.802 173.211 11.802ZM170.677 28.3539C168.214 28.3539 166.199 27.1391 166.199 24.6733C166.199 22.2075 168.109 20.8119 171.097 20.8119C173.509 20.8764 175.842 21.7071 177.781 23.1909V24.5287C175.653 26.6329 173.309 28.3539 170.677 28.3539Z" fill="#ffffff"/>
<path fill-rule="evenodd" clip-rule="evenodd" d="M241.394 11.802C237.944 11.802 235.704 12.9807 233.353 14.4847L234.347 16.0683C236.985 14.3763 238.49 13.6387 241.345 13.6387C243.955 13.6387 246.013 15.0415 246.013 18.9391V21.2096C244.04 19.8195 241.723 19.0439 239.336 18.9752C235.662 18.9752 232.394 21.0361 232.394 24.6733C232.394 28.3105 235.074 30.1906 238.49 30.1906C241.583 30.1906 244.088 28.5202 246.117 26.51L246.53 29.8941H248V18.4618C247.965 14.0075 245.173 11.802 241.394 11.802ZM238.86 28.3539C236.397 28.3539 234.382 27.1391 234.382 24.6733C234.382 22.2075 236.292 20.8119 239.28 20.8119C241.692 20.875 244.026 21.7058 245.964 23.1909V24.5287C243.836 26.6329 241.492 28.3539 238.86 28.3539Z" fill="#ffffff"/>
</svg>